<svg width="123" height="16" viewBox="0 0 123 16" fill="none" xmlns="http://www.w3.org/2000/svg">
<path d="M0.264205 15V0.454545H6.08807C7.15814 0.454545 8.05066 0.613163 8.76562 0.930398C9.48059 1.24763 10.018 1.68797 10.3778 2.25142C10.7377 2.81013 10.9176 3.45407 10.9176 4.18324C10.9176 4.75142 10.804 5.25095 10.5767 5.68182C10.3494 6.10795 10.0369 6.45833 9.6392 6.73295C9.24621 7.00284 8.7964 7.1946 8.28977 7.30824V7.45028C8.84375 7.47396 9.36222 7.63021 9.84517 7.91903C10.3329 8.20786 10.7282 8.61269 11.0312 9.13352C11.3343 9.64962 11.4858 10.2652 11.4858 10.9801C11.4858 11.7519 11.294 12.4408 10.9105 13.0469C10.5317 13.6482 9.97064 14.1241 9.22727 14.4744C8.4839 14.8248 7.56771 15 6.47869 15H0.264205ZM3.33949 12.4858H5.84659C6.7036 12.4858 7.3286 12.3224 7.72159 11.9957C8.11458 11.6643 8.31108 11.224 8.31108 10.6747C8.31108 10.2723 8.21402 9.91714 8.01989 9.60938C7.82576 9.30161 7.54877 9.06013 7.18892 8.88494C6.83381 8.70975 6.41004 8.62216 5.91761 8.62216H3.33949V12.4858ZM3.33949 6.54119H5.61932C6.04072 6.54119 6.41477 6.4678 6.74148 6.32102C7.07292 6.16951 7.33333 5.95644 7.52273 5.68182C7.71686 5.4072 7.81392 5.07812 7.81392 4.6946C7.81392 4.16903 7.62689 3.74527 7.25284 3.4233C6.88352 3.10133 6.35795 2.94034 5.67614 2.94034H3.33949V6.54119ZM18.4016 15.2131C17.2795 15.2131 16.3136 14.9858 15.5039 14.5312C14.699 14.072 14.0787 13.4233 13.6431 12.5852C13.2075 11.7424 12.9897 10.7457 12.9897 9.59517C12.9897 8.47301 13.2075 7.48816 13.6431 6.64062C14.0787 5.79309 14.6919 5.13258 15.4826 4.65909C16.2781 4.18561 17.2108 3.94886 18.2809 3.94886C19.0006 3.94886 19.6706 4.06487 20.2908 4.29688C20.9158 4.52415 21.4603 4.86742 21.9244 5.3267C22.3931 5.78598 22.7577 6.36364 23.0181 7.05966C23.2785 7.75095 23.4087 8.56061 23.4087 9.48864V10.3196H14.1971V8.4446H20.5607C20.5607 8.009 20.466 7.62311 20.2766 7.28693C20.0872 6.95076 19.8245 6.68797 19.4883 6.49858C19.1568 6.30445 18.771 6.20739 18.3306 6.20739C17.8713 6.20739 17.4641 6.31392 17.109 6.52699C16.7586 6.73532 16.484 7.01705 16.2852 7.37216C16.0863 7.72254 15.9845 8.11316 15.9798 8.54403V10.3267C15.9798 10.8665 16.0792 11.3329 16.2781 11.7259C16.4817 12.1188 16.7681 12.4219 17.1374 12.6349C17.5067 12.848 17.9447 12.9545 18.4513 12.9545C18.7875 12.9545 19.0953 12.9072 19.3746 12.8125C19.654 12.7178 19.8931 12.5758 20.092 12.3864C20.2908 12.197 20.4424 11.965 20.5465 11.6903L23.3448 11.875C23.2028 12.5473 22.9116 13.1345 22.4712 13.6364C22.0356 14.1335 21.4722 14.5218 20.7809 14.8011C20.0943 15.0758 19.3013 15.2131 18.4016 15.2131ZM31.1857 4.09091V6.36364H24.6161V4.09091H31.1857ZM26.1076 1.47727H29.1332V11.6477C29.1332 11.9271 29.1758 12.1449 29.261 12.3011C29.3462 12.4527 29.4646 12.5592 29.6161 12.6207C29.7724 12.6823 29.9523 12.7131 30.1559 12.7131C30.2979 12.7131 30.44 12.7012 30.582 12.6776C30.7241 12.6491 30.833 12.6278 30.9087 12.6136L31.3846 14.8651C31.2331 14.9124 31.02 14.9669 30.7454 15.0284C30.4708 15.0947 30.137 15.1349 29.744 15.1491C29.0148 15.1776 28.3756 15.0805 27.8263 14.858C27.2818 14.6354 26.8581 14.2898 26.555 13.821C26.252 13.3523 26.1029 12.7604 26.1076 12.0455V1.47727Z" fill="#1FDE92"/>
<path d="M38.2276 4.09091V5.51136H32.5742V4.09091H38.2276ZM34.2219 1.47727H35.8981V11.875C35.8981 12.3485 35.9667 12.7036 36.104 12.9403C36.2461 13.1723 36.426 13.3286 36.6438 13.4091C36.8664 13.4848 37.1007 13.5227 37.3469 13.5227C37.5316 13.5227 37.6831 13.5133 37.8015 13.4943C37.9199 13.4706 38.0146 13.4517 38.0856 13.4375L38.4265 14.9432C38.3129 14.9858 38.1542 15.0284 37.9506 15.071C37.747 15.1184 37.489 15.142 37.1765 15.142C36.703 15.142 36.239 15.0402 35.7844 14.8366C35.3346 14.633 34.9606 14.3229 34.6623 13.9062C34.3687 13.4896 34.2219 12.964 34.2219 12.3295V1.47727ZM45.2056 15.2273C44.1545 15.2273 43.2478 14.9953 42.4854 14.5312C41.7279 14.0625 41.1431 13.4091 40.7312 12.571C40.324 11.7282 40.1204 10.7481 40.1204 9.63068C40.1204 8.51326 40.324 7.52841 40.7312 6.67614C41.1431 5.81913 41.716 5.15152 42.4499 4.6733C43.1886 4.19034 44.0503 3.94886 45.0352 3.94886C45.6033 3.94886 46.1644 4.04356 46.7184 4.23295C47.2724 4.42235 47.7766 4.73011 48.2312 5.15625C48.6857 5.57765 49.0479 6.13636 49.3178 6.83239C49.5877 7.52841 49.7227 8.38542 49.7227 9.40341V10.1136H41.3136V8.66477H48.0181C48.0181 8.04924 47.895 7.5 47.6488 7.01705C47.4073 6.53409 47.0617 6.15294 46.6119 5.87358C46.1668 5.59422 45.6412 5.45455 45.0352 5.45455C44.3675 5.45455 43.7899 5.62026 43.3022 5.9517C42.8192 6.27841 42.4476 6.70455 42.1871 7.23011C41.9267 7.75568 41.7965 8.31913 41.7965 8.92045V9.88636C41.7965 10.7102 41.9386 11.4086 42.2227 11.9815C42.5115 12.5497 42.9116 12.983 43.4229 13.2812C43.9343 13.5748 44.5285 13.7216 45.2056 13.7216C45.646 13.7216 46.0437 13.66 46.3988 13.5369C46.7586 13.4091 47.0688 13.2197 47.3292 12.9688C47.5896 12.7131 47.7908 12.3958 47.9329 12.017L49.5522 12.4716C49.3817 13.0208 49.0953 13.5038 48.6928 13.9205C48.2904 14.3324 47.7932 14.6544 47.2013 14.8864C46.6095 15.1136 45.9442 15.2273 45.2056 15.2273ZM52.2724 15V4.09091H53.8917V5.73864H54.0053C54.2042 5.19886 54.564 4.76089 55.0849 4.42472C55.6057 4.08854 56.1928 3.92045 56.8462 3.92045C56.9693 3.92045 57.1232 3.92282 57.3079 3.92756C57.4925 3.93229 57.6322 3.93939 57.7269 3.94886V5.65341C57.6701 5.6392 57.5399 5.6179 57.3363 5.58949C57.1374 5.55634 56.9267 5.53977 56.7042 5.53977C56.1739 5.53977 55.7004 5.65104 55.2837 5.87358C54.8718 6.09138 54.5451 6.39441 54.3036 6.78267C54.0669 7.16619 53.9485 7.60417 53.9485 8.09659V15H52.2724ZM63.8136 15.2273C62.7908 15.2273 61.9102 14.9858 61.1715 14.5028C60.4329 14.0199 59.8647 13.3546 59.467 12.5071C59.0692 11.6596 58.8704 10.6913 58.8704 9.60227C58.8704 8.49432 59.074 7.51657 59.4812 6.66903C59.8931 5.81676 60.466 5.15152 61.1999 4.6733C61.9386 4.19034 62.8003 3.94886 63.7852 3.94886C64.5522 3.94886 65.2435 4.09091 65.859 4.375C66.4746 4.65909 66.9788 5.05682 67.3718 5.56818C67.7648 6.07955 68.0086 6.67614 68.1033 7.35795H66.4272C66.2994 6.8608 66.0153 6.42045 65.5749 6.03693C65.1393 5.64867 64.5522 5.45455 63.8136 5.45455C63.1602 5.45455 62.5872 5.625 62.0948 5.96591C61.6071 6.30208 61.226 6.77794 60.9513 7.39347C60.6815 8.00426 60.5465 8.72159 60.5465 9.54545C60.5465 10.3883 60.6791 11.1222 60.9442 11.7472C61.2141 12.3722 61.5929 12.8575 62.0806 13.2031C62.573 13.5488 63.1507 13.7216 63.8136 13.7216C64.2492 13.7216 64.6445 13.6458 64.9996 13.4943C65.3548 13.3428 65.6554 13.125 65.9016 12.8409C66.1478 12.5568 66.323 12.2159 66.4272 11.8182H68.1033C68.0086 12.4621 67.7743 13.0421 67.4002 13.5582C67.0309 14.0696 66.5408 14.4768 65.93 14.7798C65.324 15.0781 64.6185 15.2273 63.8136 15.2273ZM74.9854 15.2273C74.0006 15.2273 73.1365 14.9929 72.3931 14.5241C71.6545 14.0554 71.0768 13.3996 70.6602 12.5568C70.2482 11.714 70.0423 10.7292 70.0423 9.60227C70.0423 8.46591 70.2482 7.47396 70.6602 6.62642C71.0768 5.77888 71.6545 5.12074 72.3931 4.65199C73.1365 4.18324 74.0006 3.94886 74.9854 3.94886C75.9703 3.94886 76.832 4.18324 77.5707 4.65199C78.314 5.12074 78.8917 5.77888 79.3036 6.62642C79.7203 7.47396 79.9286 8.46591 79.9286 9.60227C79.9286 10.7292 79.7203 11.714 79.3036 12.5568C78.8917 13.3996 78.314 14.0554 77.5707 14.5241C76.832 14.9929 75.9703 15.2273 74.9854 15.2273ZM74.9854 13.7216C75.7335 13.7216 76.3491 13.5298 76.832 13.1463C77.315 12.7628 77.6725 12.2585 77.9045 11.6335C78.1365 11.0085 78.2525 10.3314 78.2525 9.60227C78.2525 8.87311 78.1365 8.19366 77.9045 7.56392C77.6725 6.93419 77.315 6.42519 76.832 6.03693C76.3491 5.64867 75.7335 5.45455 74.9854 5.45455C74.2373 5.45455 73.6218 5.64867 73.1388 6.03693C72.6559 6.42519 72.2984 6.93419 72.0664 7.56392C71.8344 8.19366 71.7184 8.87311 71.7184 9.60227C71.7184 10.3314 71.8344 11.0085 72.0664 11.6335C72.2984 12.2585 72.6559 12.7628 73.1388 13.1463C73.6218 13.5298 74.2373 13.7216 74.9854 13.7216ZM84.1634 8.4375V15H82.4872V4.09091H84.1065V5.79545H84.2486C84.5043 5.24148 84.8925 4.7964 85.4134 4.46023C85.9342 4.11932 86.6065 3.94886 87.4304 3.94886C88.169 3.94886 88.8153 4.10038 89.3693 4.40341C89.9233 4.7017 90.3542 5.15625 90.6619 5.76705C90.9697 6.37311 91.1236 7.14015 91.1236 8.06818V15H89.4474V8.18182C89.4474 7.32481 89.2249 6.6572 88.7798 6.17898C88.3348 5.69602 87.724 5.45455 86.9474 5.45455C86.4124 5.45455 85.9342 5.57055 85.5128 5.80256C85.0961 6.03456 84.767 6.37311 84.5256 6.81818C84.2841 7.26326 84.1634 7.80303 84.1634 8.4375ZM98.9308 4.09091V5.51136H93.2773V4.09091H98.9308ZM94.9251 1.47727H96.6012V11.875C96.6012 12.3485 96.6699 12.7036 96.8072 12.9403C96.9492 13.1723 97.1291 13.3286 97.3469 13.4091C97.5695 13.4848 97.8039 13.5227 98.0501 13.5227C98.2347 13.5227 98.3862 13.5133 98.5046 13.4943C98.623 13.4706 98.7177 13.4517 98.7887 13.4375L99.1296 14.9432C99.016 14.9858 98.8574 15.0284 98.6538 15.071C98.4502 15.1184 98.1921 15.142 97.8796 15.142C97.4061 15.142 96.9421 15.0402 96.4876 14.8366C96.0378 14.633 95.6637 14.3229 95.3654 13.9062C95.0719 13.4896 94.9251 12.964 94.9251 12.3295V1.47727ZM101.452 15V4.09091H103.071V5.73864H103.185C103.384 5.19886 103.744 4.76089 104.265 4.42472C104.785 4.08854 105.373 3.92045 106.026 3.92045C106.149 3.92045 106.303 3.92282 106.488 3.92756C106.672 3.93229 106.812 3.93939 106.907 3.94886V5.65341C106.85 5.6392 106.72 5.6179 106.516 5.58949C106.317 5.55634 106.106 5.53977 105.884 5.53977C105.354 5.53977 104.88 5.65104 104.463 5.87358C104.051 6.09138 103.725 6.39441 103.483 6.78267C103.247 7.16619 103.128 7.60417 103.128 8.09659V15H101.452ZM112.993 15.2273C112.008 15.2273 111.144 14.9929 110.401 14.5241C109.662 14.0554 109.085 13.3996 108.668 12.5568C108.256 11.714 108.05 10.7292 108.05 9.60227C108.05 8.46591 108.256 7.47396 108.668 6.62642C109.085 5.77888 109.662 5.12074 110.401 4.65199C111.144 4.18324 112.008 3.94886 112.993 3.94886C113.978 3.94886 114.84 4.18324 115.578 4.65199C116.322 5.12074 116.9 5.77888 117.311 6.62642C117.728 7.47396 117.936 8.46591 117.936 9.60227C117.936 10.7292 117.728 11.714 117.311 12.5568C116.9 13.3996 116.322 14.0554 115.578 14.5241C114.84 14.9929 113.978 15.2273 112.993 15.2273ZM112.993 13.7216C113.741 13.7216 114.357 13.5298 114.84 13.1463C115.323 12.7628 115.68 12.2585 115.912 11.6335C116.144 11.0085 116.26 10.3314 116.26 9.60227C116.26 8.87311 116.144 8.19366 115.912 7.56392C115.68 6.93419 115.323 6.42519 114.84 6.03693C114.357 5.64867 113.741 5.45455 112.993 5.45455C112.245 5.45455 111.63 5.64867 111.147 6.03693C110.664 6.42519 110.306 6.93419 110.074 7.56392C109.842 8.19366 109.726 8.87311 109.726 9.60227C109.726 10.3314 109.842 11.0085 110.074 11.6335C110.306 12.2585 110.664 12.7628 111.147 13.1463C111.63 13.5298 112.245 13.7216 112.993 13.7216ZM122.171 0.454545V15H120.495V0.454545H122.171Z" fill="#C8C8C8"/>
</svg>
